<?xml version="1.0" encoding="UTF-8" standalone="no"?>
<!DOCTYPE svg PUBLIC "-//W3C//DTD SVG 1.1//EN" "http://www.w3.org/Graphics/SVG/1.1/DTD/svg11.dtd">
<svg width="100%" height="100%" viewBox="0 0 48 48" version="1.1" xmlns="http://www.w3.org/2000/svg" xmlns:xlink="http://www.w3.org/1999/xlink" xml:space="preserve" xmlns:serif="http://www.serif.com/" style="fill-rule:evenodd;clip-rule:evenodd;stroke-linejoin:round;stroke-miterlimit:2;">
    <g transform="matrix(1,0,0,1,-15.3622,-46.762)">
        <g id="Shape" transform="matrix(4.16667,0,0,4.16667,-183.275,50.6988)">
            <path d="M56.154,7.783C57.422,7.783 58.419,6.745 58.44,5.5C58.357,4.96 58.17,3.964 56.757,3.964C55.219,3.964 54.72,6.102 53.473,7.472C53.369,8.26 52.621,8.945 51.707,9.07C51.935,9.298 52.434,9.443 53.037,9.443C54.138,9.443 55.468,9.111 56.175,8.426C55.24,8.447 54.637,7.845 54.575,7.015C55.053,7.575 55.551,7.783 56.154,7.783Z" style="fill:rgb(18,171,219);fill-rule:nonzero;"/>
        </g>
        <g transform="matrix(4.16667,0,0,4.16667,-183.214,50.7227)">
            <path d="M58.44,5.417C58.419,3.985 57.733,2.781 56.674,1.806C55.884,1.079 54.928,0.519 53.93,0.104C53.847,0.062 53.764,0.042 53.681,0C52.455,1.474 48.215,2.553 48.215,5.645C48.215,6.849 48.984,7.97 50.086,8.426C50.73,8.675 51.374,8.675 52.018,8.468C52.6,8.281 53.057,7.928 53.452,7.492C54.699,6.123 55.198,3.985 56.736,3.985C58.128,3.985 58.315,4.981 58.419,5.521C58.44,5.5 58.44,5.479 58.44,5.417Z" style="fill:rgb(0,112,173);fill-rule:nonzero;"/>
        </g>
    </g>
</svg>
